<svg xmlns="http://www.w3.org/2000/svg" viewBox="0 0 64 64" fill="none">
  <!-- Tree canopy (organic dome) -->
  <path d="M 32 6 C 18 6 8 16 8 28 C 8 38 14 44 22 47 L 28 47 L 28 42 L 36 42 L 36 47 L 42 47 C 50 44 56 38 56 28 C 56 16 46 6 32 6 Z" fill="#2e8a50"/>
  <path d="M 32 10 C 22 10 14 18 14 27 C 14 34 18 40 24 43 L 28 43 L 28 42 L 36 42 L 36 43 L 40 43 C 46 40 50 34 50 27 C 50 18 42 10 32 10 Z" fill="#3aaf62"/>
  <!-- Highlight -->
  <ellipse cx="26" cy="22" rx="8" ry="6" fill="#4ade80" opacity="0.3"/>
  <!-- "A" letter in canopy -->
  <text x="32" y="38" font-family="Georgia, serif" font-size="24" font-weight="700" fill="#f0ede6" text-anchor="middle" dominant-baseline="auto">A</text>
  <!-- Trunk -->
  <rect x="29" y="47" width="6" height="12" rx="1.5" fill="#5a3e2b"/>
  <rect x="30.5" y="47" width="3" height="12" rx="1" fill="#7b5a3a" opacity="0.5"/>
  <!-- Roots -->
  <path d="M 29 58 C 26 59 22 60 20 60" stroke="#5a3e2b" stroke-width="2" stroke-linecap="round" fill="none"/>
  <path d="M 35 58 C 38 59 42 60 44 60" stroke="#5a3e2b" stroke-width="2" stroke-linecap="round" fill="none"/>
  <path d="M 31 59 C 30 61 28 62 27 62" stroke="#5a3e2b" stroke-width="1.5" stroke-linecap="round" fill="none"/>
  <path d="M 33 59 C 34 61 36 62 37 62" stroke="#5a3e2b" stroke-width="1.5" stroke-linecap="round" fill="none"/>
</svg>
